{"title":"Sumo January '18 Basho Highlights. revittony","magnet":"magnet:?xt=urn:btih:c6e34f74dcc6b3d7a4912cb03b7fdd829046c941&dn=Sumo+January+%2718+Basho+Highlights.+revittony&tr=udp%3A%2F%2Ftracker.leechers-paradise.org%3A6969&tr=udp%3A%2F%2Fzer0day.ch%3A1337&tr=udp%3A%2F%2Fopen.demonii.com%3A1337&tr=udp%3A%2F%2Ftracker.coppersurfer.tk%3A6969&tr=udp%3A%2F%2Fexodus.desync.com%3A6969","uploader":"revittony1","categoryP":"video","categoryS":"tv_shows","size":"1724816294","seeders":"0","leechers":"0","description":"Format : MPEG-4 \r\nFormat profile : Base Media \r\nCodec ID : isom (isom/iso2/avc1/mp41) s \r\nOverall bit rate mode : Variable \r\nOverall bit rate : 667 kb/s \r\n\r\nVideo \r\nID : 1 \r\nFormat : AVC \r\nFormat/Info : Advanced Video Codec \r\nFormat profile : <a href=\"/cdn-cgi/l/email-protection\" class=\"__cf_email__\" data-cfemail=\"1557746670797c7b70555926\">[email&#xA0;protected]</a> \r\nFormat settings : 3 Ref Frames \r\nFormat settings, CABAC : No \r\nFormat settings, RefFrames : 3 frames \r\nFormat settings, GOP : M=1, N=90 \r\nCodec ID : avc1 \r\nCodec ID/Info : Advanced Video Coding \r\nDuration : 22 min 59 s \r\nDuration_FirstFrame : 33 ms \r\nBit rate : 536 kb/s \r\nWidth : 632 pixels \r\nOriginal width : 640 pixels \r\nHeight : 368 pixels \r\nOriginal height : 360 pixels \r\nDisplay aspect ratio : 1.717 \r\nOriginal display aspect ratio : 16:9 \r\nFrame rate mode : Constant \r\nFrame rate : 30.000 FPS \r\nColor space : YUV \r\nChroma subsampling : 4:2:0 \r\nBit depth : 8 bits \r\nScan type : Progressive \r\nBits/(Pixel*Frame) : 0.077 \r\nStream size : 87.5 MiB (80%) \r\nWriting library : x264 core 136 r63M 8fcf9de \r\nEncoding settings : cabac=0 / ref=3 / deblock=1:0:0 / analyse=0x1:0x111 / me=hex / subme=7 / psy=1 / psy_rd=1.00:0.00 / mixed_ref=1 / me_range=16 / chroma_me=1 / trellis=1 / 8x8dct=0 / cqm=0 / deadzone=21,11 / fast_pskip=1 / chroma_qp_offset=-2 / threads=24 / lookahead_threads=2 / sliced_threads=0 / nr=0 / decimate=1 / interlaced=0 / bluray_compat=0 / constrained_intra=0 / bframes=0 / weightp=0 / keyint=90 / keyint_min=9 / scenecut=0 / intra_refresh=0 / rc_lookahead=40 / rc=cbr / mbtree=1 / bitrate=536 / ratetol=1.0 / qcomp=0.60 / qpmin=0 / qpmax=69 / qpstep=4 / vbv_maxrate=536 / vbv_bufsize=1072 / nal_hrd=none / ip_ratio=1.40 / aq=1:1.00 \r\nmdhd_Duration : 1379633 \r\n\r\nAudio \r\nID : 2 \r\nFormat : AAC \r\nFormat/Info : Advanced Audio Codec \r\nFormat profile : LC \r\nCodec ID : mp4a-40-2 \r\nDuration : 22 min 59 s \r\nBit rate mode : Variable \r\nBit rate : 128 kb/s \r\nMaximum bit rate : 238 kb/s \r\nChannel(s) : 2 channels \r\nChannel positions : Front: L R \r\nSampling rate : 44.1 kHz \r\nFrame rate : 43.066 FPS (1024 SPF) \r\nCompression mode : Lossy \r\nStream size : 21.0 MiB (19%)","last_updated":"2018-01-29T12:12:22.024Z","parsed":{"xt":"urn:btih:c6e34f74dcc6b3d7a4912cb03b7fdd829046c941","dn":"Sumo January '18 Basho Highlights. revittony","tr":["udp://exodus.desync.com:6969","udp://open.demonii.com:1337","udp://tracker.coppersurfer.tk:6969","udp://tracker.leechers-paradise.org:6969","udp://zer0day.ch:1337"],"infoHash":"c6e34f74dcc6b3d7a4912cb03b7fdd829046c941","infoHashBuffer":{"type":"Buffer","data":[198,227,79,116,220,198,179,215,164,145,44,176,59,127,221,130,144,70,201,65]},"name":"Sumo January '18 Basho Highlights. revittony","announce":["udp://exodus.desync.com:6969","udp://open.demonii.com:1337","udp://tracker.coppersurfer.tk:6969","udp://tracker.leechers-paradise.org:6969","udp://zer0day.ch:1337"],"urlList":[]}}